# xmcd
# Track frame offsets: 
#        150
#        6692
#        15010
#        35052
#        64350
#        98820
#        118657
#        148932
#        190850
#        210800
# Disc length: 3190 seconds
# Revision: 2
# Processed by: cddbd v1.4PL0 Copyright (c) Steve Scherf et al.
# Submitted via: ExactAudioCopy v0.90a9
#
DISCID=880c740a
DTITLE=Santana - Mother Earth 2000
DYEAR=1900
DGENRE=
TTITLE0=Persuasion
TTITLE1=Jingo
TTITLE2=Jammin' Home
TTITLE3=Fried Neckbones at Home Fries
TTITLE4=As The Years Go Passing By
TTITLE5=Evil Ways (Live)
TTITLE6=Soul Sacrifice
TTITLE7=Jingo
TTITLE8=Savor (Live)
TTITLE9=Santana Jam (Treat)
EXTD=
EXTT0=
EXTT1=
EXTT2=
EXTT3=
EXTT4=
EXTT5=
EXTT6=
EXTT7=
EXTT8=
EXTT9=
PLAYORDER=
